<svg width="27" height="24" viewBox="0 0 27 24" fill="none" xmlns="http://www.w3.org/2000/svg">
<path d="M19.5069 14.3955C19.5069 15.4017 19.8219 15.803 20.6456 15.803C22.4813 15.803 23.6503 13.6767 23.6503 10.1404C23.6503 4.73537 19.3172 2.14785 13.9074 2.14785C8.3421 2.14785 3.28024 5.54038 3.28024 11.9517C3.28024 18.0755 7.70822 21.4105 14.5083 21.4105C16.8172 21.4105 18.367 21.1805 20.7378 20.4618L21.2465 22.3868C18.906 23.078 16.4047 23.2781 14.4767 23.2781C5.55748 23.2781 0.780273 18.8218 0.780273 11.9505C0.780273 5.02168 6.31657 0.306641 13.939 0.306641C21.8777 0.306641 26.083 4.61917 26.083 9.90922C26.083 14.3943 24.5345 17.8155 19.6638 17.8155C17.4485 17.8155 15.9949 17.0105 15.8051 15.2268C15.2358 17.2106 13.7176 17.8155 11.6605 17.8155C8.90878 17.8155 6.5999 15.8881 6.5999 12.008C6.5999 8.09795 8.62544 5.68293 12.2627 5.68293C14.192 5.68293 15.3939 6.37294 15.929 7.46545L16.8475 5.94168H19.5043V14.3955H19.5069ZM15.618 10.6004C15.618 9.02036 14.3199 8.3579 13.2445 8.3579C12.0743 8.3579 10.7788 9.21921 10.7788 11.7504C10.7788 13.7629 11.7593 14.8842 13.2445 14.8842C14.2882 14.8842 15.618 14.2804 15.618 12.6129V10.6004Z" fill="#1F4D85"/>
</svg>
