<svg width="22" height="24" viewBox="0 0 22 24" fill="none" xmlns="http://www.w3.org/2000/svg">
<path d="M4.87351 10.1703C6.53982 13.782 9.22445 16.73 12.4992 18.5805L15.045 15.7728C15.3574 15.4283 15.8203 15.3134 16.2253 15.4666C17.5213 15.9388 18.9215 16.194 20.3564 16.194C20.9928 16.194 21.5135 16.7683 21.5135 17.4702V21.9241C21.5135 22.626 20.9928 23.2003 20.3564 23.2003C9.49059 23.2003 0.68457 13.4885 0.68457 1.50496C0.68457 0.803049 1.20529 0.22876 1.84173 0.22876H5.89181C6.52825 0.22876 7.04898 0.803049 7.04898 1.50496C7.04898 3.1002 7.28041 4.63164 7.70856 6.06098C7.83585 6.50765 7.74327 7.00537 7.41927 7.3627L4.87351 10.1703Z" fill="#1F4D85"/>
</svg>
