<svg width="41" height="40" viewBox="0 0 41 40" fill="none" xmlns="http://www.w3.org/2000/svg">
<rect x="0.572266" width="39.45" height="39.45" rx="4" fill="white"/>
<path d="M20.2969 21.35C19.4934 21.35 18.7079 21.1117 18.0399 20.6653C17.3718 20.2189 16.8511 19.5845 16.5436 18.8421C16.2361 18.0998 16.1557 17.283 16.3124 16.4949C16.4692 15.7069 16.8561 14.983 17.4243 14.4149C17.9924 13.8467 18.7163 13.4598 19.5043 13.303C20.2924 13.1463 21.1092 13.2267 21.8515 13.5342C22.5939 13.8417 23.2283 14.3624 23.6747 15.0305C24.1211 15.6985 24.3594 16.484 24.3594 17.2875C24.3581 18.3645 23.9297 19.3971 23.1681 20.1587C22.4065 20.9203 21.3739 21.3487 20.2969 21.35ZM20.2969 14.85C19.8148 14.85 19.3435 14.9929 18.9427 15.2608C18.5418 15.5286 18.2294 15.9093 18.0449 16.3547C17.8604 16.8001 17.8122 17.2902 17.9062 17.763C18.0003 18.2358 18.2324 18.6702 18.5733 19.0111C18.9142 19.3519 19.3485 19.5841 19.8213 19.6781C20.2942 19.7722 20.7843 19.7239 21.2297 19.5394C21.6751 19.3549 22.0557 19.0425 22.3236 18.6417C22.5914 18.2408 22.7344 17.7696 22.7344 17.2875C22.7337 16.6412 22.4767 16.0216 22.0197 15.5646C21.5628 15.1076 20.9431 14.8506 20.2969 14.85Z" fill="#1F4D85"/>
<path d="M20.2969 31.1L13.4426 23.0164C13.3474 22.895 13.2531 22.7729 13.1599 22.65C11.9891 21.1077 11.3565 19.2238 11.3594 17.2875C11.3594 14.9171 12.301 12.6438 13.9771 10.9677C15.6532 9.2916 17.9265 8.34998 20.2969 8.34998C22.6673 8.34998 24.9405 9.2916 26.6167 10.9677C28.2928 12.6438 29.2344 14.9171 29.2344 17.2875C29.2372 19.223 28.605 21.1059 27.4347 22.6475L27.4339 22.65C27.4339 22.65 27.1901 22.9701 27.1536 23.0132L20.2969 31.1ZM14.4574 21.6709C14.4574 21.6709 14.6468 21.9212 14.6898 21.9748L20.2969 28.5877L25.9113 21.9658C25.947 21.9212 26.1371 21.6693 26.1379 21.6685C27.0944 20.4084 27.6113 18.8694 27.6094 17.2875C27.6094 15.3481 26.839 13.4881 25.4676 12.1168C24.0962 10.7454 22.2363 9.97498 20.2969 9.97498C18.3575 9.97498 16.4975 10.7454 15.1262 12.1168C13.7548 13.4881 12.9844 15.3481 12.9844 17.2875C12.9827 18.8704 13.5001 20.4102 14.4574 21.6709Z" fill="#1F4D85"/>
</svg>
