<svg width="60" height="63" viewBox="0 0 60 63" fill="none" xmlns="http://www.w3.org/2000/svg">
<path d="M35.7927 54.4417C36.6368 53.8932 37.2505 52.9852 37.4986 51.9174C37.7468 50.8497 37.609 49.7097 37.1158 48.7482L35.2559 45.1228C34.7626 44.1613 33.9542 43.457 33.0085 43.165C32.0628 42.8729 31.0572 43.017 30.213 43.5655C23.8471 47.7018 20.1273 40.4511 18.2674 36.8257C16.4075 33.2003 12.6878 25.9495 19.0538 21.8132C19.8979 21.2647 20.5116 20.3567 20.7597 19.2889C21.0078 18.2212 20.8701 17.0812 20.3769 16.1197L18.517 12.4943C18.0237 11.5328 17.2153 10.8285 16.2696 10.5365C15.3239 10.2444 14.3183 10.3885 13.4741 10.937C5.51666 16.1074 2.60207 22.835 11.9015 40.962C21.2009 59.0889 27.8352 59.6121 35.7927 54.4417Z" fill="#FCFEFE" stroke="#FCFEFE" stroke-width="2" stroke-linecap="round" stroke-linejoin="round"/>
<path d="M52.7329 39.4707C54.4236 32.1794 53.4815 24.3962 50.1136 17.8312C46.7457 11.2662 41.2274 6.4564 34.7711 4.45857M42.9875 36.4614C43.4912 34.2959 43.6121 32.0348 43.3432 29.8074C43.0744 27.5799 42.4211 25.4296 41.4206 23.4795C40.4201 21.5293 39.0921 19.8175 37.5125 18.4417C35.9328 17.0659 34.1324 16.0532 32.2142 15.4613M33.2946 33.4301C33.6326 31.9711 33.444 30.4138 32.7701 29.1002C32.0962 27.7866 30.9922 26.8241 29.7004 26.424" stroke="#FCFEFE" stroke-width="2" stroke-linecap="round" stroke-linejoin="round"/>
</svg>
