<svg width="40" height="40" viewBox="0 0 40 40" fill="none" xmlns="http://www.w3.org/2000/svg">
<rect x="0.0517578" width="39.45" height="39.45" rx="4" fill="white"/>
<path d="M30.5158 10.7759H9.03788C8.56318 10.7759 8.10793 10.9644 7.77228 11.3001C7.43662 11.6358 7.24805 12.091 7.24805 12.5657V26.8843C7.24805 27.359 7.43662 27.8143 7.77228 28.1499C8.10793 28.4856 8.56318 28.6742 9.03788 28.6742H30.5158C30.9905 28.6742 31.4458 28.4856 31.7814 28.1499C32.1171 27.8143 32.3057 27.359 32.3057 26.8843V12.5657C32.3057 12.091 32.1171 11.6358 31.7814 11.3001C31.4458 10.9644 30.9905 10.7759 30.5158 10.7759ZM28.547 12.5657L19.7769 18.6332L11.0067 12.5657H28.547ZM9.03788 26.8843V13.3801L19.2668 20.4589C19.4166 20.5628 19.5945 20.6185 19.7769 20.6185C19.9592 20.6185 20.1371 20.5628 20.287 20.4589L30.5158 13.3801V26.8843H9.03788Z" fill="#1F4D85"/>
</svg>
