<svg width="41" height="38" viewBox="0 0 41 38" fill="none" xmlns="http://www.w3.org/2000/svg">
<rect x="0.984375" y="0.286377" width="39.45" height="36.8773" rx="4" fill="white"/>
<path d="M15.1015 17.1101C16.6025 20.2175 19.0208 22.7539 21.9708 24.346L24.264 21.9304C24.5454 21.6339 24.9624 21.5351 25.3272 21.6669C26.4947 22.0731 27.7559 22.2927 29.0485 22.2927C29.6218 22.2927 30.0909 22.7868 30.0909 23.3907V27.2228C30.0909 27.8267 29.6218 28.3208 29.0485 28.3208C19.2606 28.3208 11.3281 19.9649 11.3281 9.65465C11.3281 9.05074 11.7972 8.55664 12.3705 8.55664H16.0188C16.5921 8.55664 17.0612 9.05074 17.0612 9.65465C17.0612 11.0272 17.2697 12.3448 17.6553 13.5745C17.77 13.9588 17.6866 14.3871 17.3947 14.6945L15.1015 17.1101Z" fill="#1F4D85"/>
</svg>
